<?xml version="1.0" standalone="no"?>
<!DOCTYPE svg PUBLIC "-//W3C//DTD SVG 20010904//EN"
 "http://www.w3.org/TR/2001/REC-SVG-20010904/DTD/svg10.dtd">
<svg version="1.0" xmlns="http://www.w3.org/2000/svg"
 width="1254.000000pt" height="1254.000000pt" viewBox="0 0 1254.000000 1254.000000"
 preserveAspectRatio="xMidYMid meet">
<metadata>
Created by potrace 1.16, written by Peter Selinger 2001-2019
</metadata>
<g transform="translate(0.000000,1254.000000) scale(0.100000,-0.100000)"
fill="#000000" stroke="none">
<path d="M7693 12473 c-137 -161 -248 -333 -363 -564 -365 -727 -668 -1898
-674 -2600 l-1 -175 -100 81 c-246 198 -501 347 -799 465 -486 193 -1094 257
-1609 169 l-129 -22 -76 84 c-229 254 -518 495 -892 744 -203 136 -859 499
-1078 598 -377 170 -685 280 -1086 387 -260 69 -489 110 -618 110 -42 0 -48
-3 -48 -21 0 -11 33 -71 74 -133 420 -636 1072 -1252 1848 -1744 428 -271 793
-441 1100 -512 l98 -22 -64 -82 c-41 -53 -95 -144 -154 -261 -93 -186 -110
-225 -95 -225 24 0 101 107 195 270 30 53 90 140 132 195 43 55 82 110 87 122
4 12 19 29 33 38 13 9 26 25 29 36 3 12 3 18 0 15 -4 -4 -18 5 -32 18 -57 53
-280 192 -1033 641 l-787 470 -21 110 c-27 145 -49 448 -39 545 4 41 8 81 8
88 2 29 37 20 202 -53 822 -364 1487 -794 1974 -1278 l160 -159 -48 -44 -48
-44 31 0 c17 0 62 7 100 16 39 8 205 30 369 48 l300 32 338 -37 c341 -38 405
-50 568 -99 310 -95 664 -286 945 -510 58 -46 166 -143 240 -215 194 -189 245
-219 194 -117 -15 30 -65 94 -113 144 l-86 91 1 231 c0 240 8 320 60 631 75
449 209 943 375 1388 24 64 46 117 50 117 12 0 97 -62 164 -119 151 -130 308
-341 409 -551 l56 -115 -19 -135 c-10 -74 -24 -146 -30 -160 -6 -14 -31 -97
-56 -185 -77 -270 -142 -456 -286 -818 -84 -209 -179 -428 -241 -550 l-101
-202 -5 -123 c-3 -73 0 -153 8 -200 14 -88 77 -292 90 -292 15 0 24 63 21 152
l-3 87 62 98 c116 186 217 413 313 708 147 451 286 1171 331 1715 65 779 35
1363 -85 1685 -32 85 -36 90 -65 93 -27 3 -38 -4 -81 -55z"/>
<path d="M3615 8651 c-38 -9 -85 -26 -104 -35 -54 -29 -127 -110 -162 -182
-60 -122 -50 -295 22 -401 39 -55 108 -108 171 -129 79 -26 227 -16 297 20
157 81 240 229 228 411 -8 134 -77 257 -77 138 0 -117 -125 -182 -218 -113
-29 21 -42 44 -56 96 -7 24 25 77 64 106 14 10 45 22 70 26 61 10 65 34 8 57
-61 25 -159 28 -243 6z"/>
<path d="M2823 8318 c-5 -7 -22 -44 -37 -83 -50 -127 -102 -219 -215 -380
-175 -247 -198 -306 -208 -521 -7 -157 7 -283 49 -444 16 -63 32 -126 35 -140
2 -14 8 -34 13 -45 5 -11 30 -76 56 -144 47 -127 121 -295 179 -411 l33 -65
-232 0 c-252 -1 -349 -14 -508 -71 -133 -48 -293 -139 -343 -193 -38 -43 25
-83 68 -43 76 70 266 160 416 197 250 62 588 58 897 -11 310 -69 574 -192 794
-369 88 -71 133 -96 212 -115 l47 -12 -14 -29 c-8 -15 -15 -43 -15 -62 0 -35
24 -64 102 -121 34 -25 56 -61 45 -72 -2 -2 -32 -9 -65 -15 -88 -16 -91 -45
-13 -143 17 -21 28 -42 25 -47 -3 -5 -24 -9 -48 -9 -68 0 -94 -45 -62 -108 7
-15 17 -37 20 -49 7 -22 5 -23 -46 -23 -74 0 -95 -8 -108 -40 -9 -21 -9 -38 0
-70 6 -23 10 -44 8 -46 -8 -7 -146 42 -162 58 -34 34 -149 35 -267 3 -87 -25
-219 -45 -290 -45 -36 0 -369 34 -740 76 -710 79 -769 83 -820 45 l-29 -21
-24 38 c-34 54 -81 150 -96 196 -11 33 -14 36 -23 21 -5 -10 -10 -46 -9 -81 0
-54 5 -73 37 -130 129 -236 377 -434 618 -495 37 -9 48 -16 44 -28 -2 -9 -178
-518 -390 -1131 -211 -613 -393 -1153 -402 -1200 -23 -108 -23 -306 -1 -407
61 -282 233 -491 507 -617 41 -19 87 -38 102 -41 l27 -7 -54 -60 c-42 -46
-307 -246 -418 -314 -15 -10 -361 -54 -367 -48 -18 17 176 110 321 154 129 39
156 57 126 87 -15 15 -24 15 -82 5 -113 -21 -300 -98 -409 -168 -43 -28 -79
-44 -99 -44 -25 0 -28 2 -19 14 23 28 158 101 316 171 153 69 160 73 160 101
0 54 -26 47 -300 -88 -66 -33 -136 -69 -155 -80 l-35 -20 35 32 c59 53 149
108 300 183 155 77 177 93 156 115 -23 23 -49 16 -200 -56 -249 -120 -396
-232 -381 -291 4 -14 6 -37 6 -51 -2 -69 32 -100 111 -100 24 0 52 -7 62 -15
30 -23 120 -19 472 21 386 43 1030 151 1096 185 80 40 118 90 118 154 0 30 3
35 23 35 12 1 216 18 452 39 l430 38 690 -129 c528 -98 1058 -188 1113 -188 1
0 2 -22 2 -50 0 -41 5 -55 30 -84 17 -19 45 -39 63 -45 18 -6 199 -45 402 -86
400 -82 459 -97 815 -205 215 -66 244 -72 348 -77 73 -4 112 -2 112 4 0 6 24
14 53 17 73 9 89 36 80 132 -6 64 -9 72 -52 117 -69 74 -238 193 -444 314 -45
27 -64 33 -87 28 -26 -6 -28 -9 -19 -31 14 -38 11 -51 -12 -57 -15 -4 -20 -12
-17 -33 2 -22 18 -35 98 -78 105 -57 460 -301 460 -316 0 -24 -36 -6 -72 35
-30 33 -91 74 -241 159 -226 128 -317 166 -342 146 -9 -7 -15 -23 -13 -34 2
-17 55 -47 246 -141 168 -83 253 -131 279 -157 33 -33 35 -38 18 -44 -28 -11
-185 23 -355 77 -85 27 -314 85 -509 129 -195 44 -356 82 -358 84 -5 5 77 52
134 77 26 12 144 43 261 70 120 28 234 60 262 74 46 23 50 28 50 61 0 63 -33
89 -183 149 l-39 15 54 59 c108 119 167 256 189 433 18 146 -2 316 -67 567
-19 74 -33 136 -31 138 2 1 134 -35 294 -82 293 -86 327 -93 338 -75 3 5 21
208 39 450 19 243 36 443 39 446 2 3 103 -25 223 -61 121 -36 230 -64 243 -63
20 3 76 92 363 583 186 319 344 579 351 579 6 -1 482 -140 1057 -309 1090
-320 1089 -320 1098 -271 5 23 -10 38 -40 42 -13 1 -499 142 -1080 313 -582
171 -1064 311 -1072 311 -8 0 -151 -234 -351 -577 -185 -318 -340 -582 -345
-586 -4 -5 -113 23 -241 63 -274 83 -279 83 -279 -2 0 -29 -5 -60 -10 -68 -8
-13 -10 -12 -10 3 0 9 -6 17 -13 17 -7 0 -24 -34 -38 -77 l-26 -78 -11 65 c-6
36 -14 84 -17 108 -4 23 -12 42 -19 42 -6 0 -31 -39 -55 -87 -24 -49 -45 -83
-47 -78 -1 6 -10 54 -19 108 -11 59 -22 97 -29 97 -7 0 -22 -43 -36 -102 l-24
-102 -21 89 c-20 88 -33 107 -59 86 -15 -12 -11 -35 -64 462 -20 183 -25 257
-17 257 7 0 153 -27 325 -61 172 -33 329 -59 349 -57 31 3 36 7 38 30 1 22 -3
28 -27 33 -16 4 -35 3 -41 -1 -6 -3 -14 -2 -18 3 -6 11 -647 133 -694 133 -15
0 -27 -6 -27 -12 0 -7 27 -256 60 -553 32 -298 57 -550 54 -562 -5 -20 -10
-19 -162 29 -86 27 -162 56 -169 64 -14 19 -49 205 -63 336 -15 147 -12 412
10 723 11 154 20 290 20 302 0 17 32 43 148 119 257 168 513 372 758 600 64
60 122 112 128 116 21 12 227 245 249 280 17 29 98 122 195 227 62 66 298 386
309 418 6 17 20 40 31 51 11 11 24 28 30 38 10 17 13 17 89 -1 112 -27 121
-27 139 0 14 21 14 32 4 75 -7 28 -11 52 -9 54 2 1 16 7 31 14 15 6 34 23 44
37 15 22 15 30 2 68 l-14 44 42 11 c60 16 74 53 47 127 -11 30 -18 57 -15 60
3 3 20 5 37 5 29 0 65 24 65 44 0 25 -69 101 -160 175 l-106 86 9 35 c5 19 11
55 14 80 4 41 2 46 -24 61 -25 14 -53 15 -213 7 -467 -20 -845 -112 -1137
-275 l-63 -35 0 25 c0 120 37 426 71 587 63 296 109 528 109 548 0 17 -5 23
-17 20 -12 -2 -27 -39 -55 -128 -21 -69 -43 -140 -49 -158 -6 -18 -12 -45 -15
-60 -3 -15 -18 -88 -34 -162 -30 -138 -60 -335 -60 -393 0 -52 -8 -56 -74 -44
-82 15 -167 -2 -274 -54 -73 -36 -104 -60 -188 -144 -279 -278 -381 -630 -242
-833 30 -44 101 -102 124 -102 38 0 10 -25 -114 -102 -139 -86 -413 -216 -549
-259 -52 -16 -70 -26 -66 -37 5 -11 18 -13 62 -7 65 7 161 35 161 46 0 9 55
21 123 28 5 1 5 6 1 13 -4 7 -3 8 4 4 14 -8 164 58 277 122 185 105 318 204
446 332 194 193 285 346 333 562 22 98 23 100 67 130 63 43 188 105 293 144
242 93 523 144 883 160 l152 7 -14 -59 c-8 -33 -17 -112 -21 -176 l-7 -118 31
0 c29 0 31 2 37 48 12 92 11 92 105 16 83 -69 84 -69 52 -72 -40 -4 -76 -46
-67 -80 3 -13 17 -41 30 -62 l24 -39 -52 -19 c-51 -19 -52 -21 -51 -58 0 -22
3 -50 5 -64 4 -22 0 -25 -33 -28 -54 -5 -62 -20 -44 -88 8 -32 14 -59 13 -60
-1 -2 -39 6 -85 18 -75 19 -84 19 -105 5 -13 -9 -68 -84 -122 -169 -105 -164
-153 -228 -168 -228 -5 0 -273 -169 -595 -377 -322 -207 -613 -392 -646 -410
-88 -50 -175 -114 -227 -170 -114 -119 -232 -272 -270 -348 -48 -97 -84 -252
-72 -304 8 -34 11 -36 56 -39 31 -2 62 4 93 18 l47 20 -7 -72 c-28 -286 -24
-766 8 -988 25 -172 38 -223 192 -725 l147 -480 1 -155 c1 -177 -12 -240 -71
-353 -32 -60 -163 -217 -182 -217 -3 0 -30 36 -59 79 -68 104 -187 203 -327
273 -140 71 -476 166 -679 192 -181 24 -543 40 -751 33 -196 -7 -316 -24 -615
-86 -240 -50 -498 -81 -675 -80 -60 0 -227 10 -370 23 l-260 23 -350 102
c-203 59 -378 104 -417 108 -87 8 -150 -9 -184 -50 -39 -46 -47 -73 -53 -177
l-6 -95 -48 67 c-149 208 -189 472 -113 749 12 46 179 525 370 1064 191 539
363 1032 381 1095 l33 115 79 -5 c43 -3 177 -5 298 -4 200 1 232 3 348 28 245
52 389 102 659 226 l167 77 58 -24 c81 -35 106 -38 128 -17 15 15 16 29 11 93
l-7 76 76 -3 c49 -2 81 1 91 8 21 18 17 63 -11 111 -14 24 -25 47 -25 50 0 4
17 10 38 13 20 4 50 12 66 18 26 11 28 14 23 55 -3 29 -15 57 -36 83 -37 46
-38 50 -8 50 15 -1 35 -19 67 -64 25 -35 69 -84 98 -109 52 -46 54 -47 121
-47 80 0 138 18 271 85 106 53 250 151 250 171 0 15 -18 19 -190 39 -280 33
-563 107 -640 167 l-35 28 29 53 c39 73 32 93 -37 99 -70 6 -148 44 -232 113
-216 180 -528 325 -833 389 -64 13 -142 27 -173 31 l-56 7 -66 126 c-71 138
-139 290 -186 418 l-30 81 61 7 c144 15 261 111 347 286 81 166 96 240 96 455
-1 155 -4 192 -24 264 -41 152 -97 239 -183 286 -29 15 -54 29 -56 30 -1 1 12
54 29 116 18 63 34 131 37 152 4 37 -7 48 -25 25z"/>
<path d="M6233 7924 c-4 -11 6 -27 32 -48 37 -32 38 -33 33 -91 -5 -54 -8 -62
-48 -97 -35 -31 -50 -38 -84 -38 -46 0 -92 26 -112 62 -16 28 -18 100 -3 115
6 6 12 29 15 52 4 49 -7 52 -60 16 -20 -14 -41 -25 -45 -25 -5 0 -21 -19 -37
-41 -66 -96 -92 -151 -102 -215 -29 -183 58 -356 219 -440 48 -25 64 -28 154
-29 92 0 105 2 165 32 68 33 133 96 171 167 45 84 42 281 -5 374 -15 28 -31
52 -37 52 -5 0 -9 6 -9 14 0 19 -117 125 -157 142 -43 19 -82 18 -90 -2z"/>
<path d="M4768 7728 c7 -7 12 -21 12 -32 0 -10 8 -37 17 -58 18 -40 48 -57 80
-42 10 4 22 8 26 8 4 1 12 7 17 15 4 8 17 16 27 17 9 2 19 8 21 14 2 6 10 17
18 24 26 27 16 42 -37 54 -70 16 -197 16 -181 0z"/>
<path d="M3930 7537 c0 -2 17 -43 38 -93 l37 -89 -2 -193 -1 -193 30 36 c83
96 344 178 512 160 170 -18 330 -79 460 -177 118 -89 218 -241 222 -337 1 -54
13 -101 24 -101 4 0 19 17 32 37 12 20 28 44 33 52 6 9 31 53 57 98 57 98 148
219 217 290 58 60 64 78 24 70 -139 -29 -147 -29 -198 -18 -120 27 -292 133
-486 298 -86 74 -119 96 -148 100 -20 2 -146 -10 -281 -27 -181 -23 -264 -30
-318 -25 -92 8 -109 14 -177 70 -48 38 -75 54 -75 42z"/>
<path d="M4004 6653 c3 -38 8 -108 12 -158 26 -389 125 -666 261 -730 53 -25
171 -26 242 -1 109 38 254 151 403 316 73 79 95 121 66 120 -26 -1 -103 -46
-101 -58 2 -6 -2 -12 -7 -12 -6 0 -47 -36 -93 -81 -156 -153 -265 -220 -375
-227 -55 -4 -67 -1 -103 22 -75 50 -142 184 -183 366 -15 65 -47 279 -51 335
-3 51 -48 175 -63 175 -11 0 -13 -13 -8 -67z"/>
<path d="M8509 5676 c-2 -2 -65 -6 -139 -10 -134 -6 -180 -12 -180 -25 0 -4
242 -24 538 -45 459 -32 573 -43 782 -77 487 -79 1128 -232 1573 -375 336
-109 847 -318 847 -346 0 -6 -40 -56 -89 -111 -133 -152 -658 -759 -996 -1152
-66 -77 -132 -150 -147 -163 -18 -15 -27 -32 -26 -48 1 -13 5 -24 8 -24 3 0
36 30 73 65 38 36 73 63 78 59 5 -3 8 0 7 7 -2 7 3 13 10 14 6 0 177 169 380
375 202 206 490 496 640 644 200 199 272 276 272 293 0 29 -23 44 -205 133
-583 284 -1671 592 -2520 714 -60 9 -279 29 -485 46 -386 31 -414 33 -421 26z"/>
<path d="M7688 4993 c-42 -50 -58 -79 -62 -108 -2 -22 -10 -65 -16 -95 -19
-99 -210 -1268 -210 -1290 0 -15 5 -20 17 -18 14 3 24 35 49 163 33 165 94
462 184 900 29 138 56 273 60 300 5 28 10 57 12 65 15 55 29 132 26 141 -2 6
-29 -20 -60 -58z"/>
</g>
</svg>
